<svg width="30" height="31" viewBox="0 0 30 31" fill="none" xmlns="http://www.w3.org/2000/svg">
<g filter="url(#filter0_d_594_1015)">
<path d="M23 11C23 8.87827 22.1571 6.84344 20.6569 5.34315C19.1566 3.84285 17.1217 3 15 3C12.8783 3 10.8434 3.84285 9.34315 5.34315C7.84285 6.84344 7 8.87827 7 11" stroke="#163F87" stroke-width="1.5" stroke-linecap="round" stroke-linejoin="round"/>
<path d="M23 18V18.5C23 19.0304 22.7893 19.5391 22.4142 19.9142C22.0391 20.2893 21.5304 20.5 21 20.5H17.5M5 15.438V13.562C5.00007 13.116 5.1492 12.6828 5.4237 12.3313C5.69821 11.9798 6.08232 11.7301 6.515 11.622L8.255 11.186C8.34342 11.164 8.43569 11.1624 8.52481 11.1813C8.61393 11.2003 8.69757 11.2393 8.76937 11.2954C8.84118 11.3515 8.89926 11.4232 8.93922 11.5051C8.97918 11.587 8.99997 11.6769 9 11.768V17.231C9.00016 17.3223 8.97947 17.4124 8.93952 17.4946C8.89957 17.5767 8.84141 17.6486 8.76946 17.7048C8.69752 17.761 8.61369 17.8001 8.52436 17.819C8.43503 17.8379 8.34257 17.8362 8.254 17.814L6.514 17.379C6.08151 17.2707 5.69762 17.0209 5.42331 16.6694C5.149 16.3179 5.00001 15.8849 5 15.439V15.438ZM25 15.438V13.562C24.9999 13.116 24.8508 12.6828 24.5763 12.3313C24.3018 11.9798 23.9177 11.7301 23.485 11.622L21.745 11.186C21.6566 11.164 21.5643 11.1624 21.4752 11.1813C21.3861 11.2003 21.3024 11.2393 21.2306 11.2954C21.1588 11.3515 21.1007 11.4232 21.0608 11.5051C21.0208 11.587 21 11.6769 21 11.768V17.231C20.9999 17.3222 21.0206 17.4122 21.0604 17.4942C21.1003 17.5763 21.1584 17.6481 21.2302 17.7043C21.3021 17.7605 21.3857 17.7996 21.4749 17.8186C21.5641 17.8376 21.6565 17.836 21.745 17.814L23.485 17.379C23.9177 17.2708 24.3018 17.0212 24.5763 16.6697C24.8508 16.3182 24.9999 15.885 25 15.439V15.438Z" stroke="#163F87" stroke-width="1.5"/>
<path d="M16.5 22H13.5C13.1022 22 12.7206 21.842 12.4393 21.5607C12.158 21.2794 12 20.8978 12 20.5C12 20.1022 12.158 19.7206 12.4393 19.4393C12.7206 19.158 13.1022 19 13.5 19H16.5C16.8978 19 17.2794 19.158 17.5607 19.4393C17.842 19.7206 18 20.1022 18 20.5C18 20.8978 17.842 21.2794 17.5607 21.5607C17.2794 21.842 16.8978 22 16.5 22Z" stroke="#163F87" stroke-width="1.5"/>
</g>
<defs>
<filter id="filter0_d_594_1015" x="-1" y="0" width="32" height="32" filterUnits="userSpaceOnUse" color-interpolation-filters="sRGB">
<feFlood flood-opacity="0" result="BackgroundImageFix"/>
<feColorMatrix in="SourceAlpha" type="matrix" values="0 0 0 0 0 0 0 0 0 0 0 0 0 0 0 0 0 0 127 0" result="hardAlpha"/>
<feOffset dy="4"/>
<feGaussianBlur stdDeviation="2"/>
<feComposite in2="hardAlpha" operator="out"/>
<feColorMatrix type="matrix" values="0 0 0 0 0 0 0 0 0 0 0 0 0 0 0 0 0 0 0.25 0"/>
<feBlend mode="normal" in2="BackgroundImageFix" result="effect1_dropShadow_594_1015"/>
<feBlend mode="normal" in="SourceGraphic" in2="effect1_dropShadow_594_1015" result="shape"/>
</filter>
</defs>
</svg>
