<svg width="24" height="24" viewBox="0 0 24 24" fill="none" xmlns="http://www.w3.org/2000/svg">
<g id="Frame">
<path id="Vector" d="M12 6V12H18" stroke="#BBBBBB" stroke-width="1.5" stroke-linecap="round" stroke-linejoin="round"/>
<path id="Vector_2" d="M21.888 10.5C21.164 5.689 17.013 2 12 2C6.477 2 2 6.477 2 12C2 17.523 6.477 22 12 22C16.1 22 19.625 19.532 21.168 16" stroke="#BBBBBB" stroke-width="1.5" stroke-linecap="round" stroke-linejoin="round"/>
<path id="Vector_3" d="M17 16H21.4C21.4788 16 21.5568 16.0155 21.6296 16.0457C21.7024 16.0758 21.7685 16.12 21.8243 16.1757C21.88 16.2315 21.9242 16.2976 21.9543 16.3704C21.9845 16.4432 22 16.5212 22 16.6V21" stroke="#BBBBBB" stroke-width="1.5" stroke-linecap="round" stroke-linejoin="round"/>
</g>
</svg>
