<svg width="24" height="24" viewBox="0 0 24 24" fill="none" xmlns="http://www.w3.org/2000/svg">
<g id="Frame">
<path id="Vector" d="M22.3031 18.7581L13.2984 3.01653C13.168 2.78456 12.9781 2.59149 12.7483 2.45713C12.5186 2.32277 12.2572 2.25195 11.9911 2.25195C11.7249 2.25195 11.4636 2.32277 11.2338 2.45713C11.0041 2.59149 10.8142 2.78456 10.6838 3.01653L1.69407 18.7665C1.54517 19.0323 1.48072 19.3371 1.5093 19.6404C1.53788 19.9437 1.65813 20.2311 1.85406 20.4644C2.04999 20.6977 2.3123 20.8658 2.6061 20.9463C2.8999 21.0268 3.21125 21.016 3.49875 20.9153L11.9803 18.009H11.9897H11.9981L20.4994 20.9153C20.7878 21.0173 21.1004 21.0287 21.3955 20.9479C21.6905 20.8672 21.9538 20.6982 22.1501 20.4636C22.3464 20.2289 22.4662 19.9399 22.4936 19.6353C22.5209 19.3306 22.4545 19.0249 22.3031 18.759V18.7581ZM20.9906 19.4931L12.75 16.674V11.2497C12.75 11.0507 12.671 10.86 12.5303 10.7193C12.3897 10.5787 12.1989 10.4997 12 10.4997C11.8011 10.4997 11.6103 10.5787 11.4697 10.7193C11.329 10.86 11.25 11.0507 11.25 11.2497V16.6665L3.01125 19.494L3 19.4997L11.9869 3.74965L21 19.4997L20.9906 19.4931Z" fill="#273557"/>
</g>
</svg>
