<svg width="16" height="16" viewBox="0 0 16 16" fill="none" xmlns="http://www.w3.org/2000/svg">
<g id="Frame">
<path id="Vector" d="M13.3333 6.66665C13.3333 9.61198 7.99999 14.6666 7.99999 14.6666C7.99999 14.6666 2.66666 9.61198 2.66666 6.66665C2.66666 5.25216 3.22856 3.8956 4.22875 2.89541C5.22895 1.89522 6.5855 1.33331 7.99999 1.33331C9.41448 1.33331 10.771 1.89522 11.7712 2.89541C12.7714 3.8956 13.3333 5.25216 13.3333 6.66665Z" stroke="#163F87"/>
<path id="Vector_2" d="M8.00001 7.33333C8.17682 7.33333 8.34639 7.2631 8.47141 7.13807C8.59644 7.01305 8.66668 6.84348 8.66668 6.66667C8.66668 6.48986 8.59644 6.32029 8.47141 6.19526C8.34639 6.07024 8.17682 6 8.00001 6C7.8232 6 7.65363 6.07024 7.52861 6.19526C7.40358 6.32029 7.33334 6.48986 7.33334 6.66667C7.33334 6.84348 7.40358 7.01305 7.52861 7.13807C7.65363 7.2631 7.8232 7.33333 8.00001 7.33333Z" fill="#163F87" stroke="#163F87" stroke-linecap="round" stroke-linejoin="round"/>
</g>
</svg>
